Coordinates
version=1
nRows=9
nColumns=24
inDegrees=yes

Units are S.I. units (second, meters, Newtons, ...)
Angles are in degrees.

endheader
time	pelvis_tilt	pelvis_list	pelvis_rotation	pelvis_tx	pelvis_ty	pelvis_tz	hip_flexion_r	hip_adduction_r	hip_rotation_r	knee_angle_r	ankle_angle_r	subtalar_angle_r	mtp_angle_r	hip_flexion_l	hip_adduction_l	hip_rotation_l	knee_angle_l	ankle_angle_l	subtalar_angle_l	mtp_angle_l	lumbar_extension	lumbar_bending	lumbar_rotation
      3.99500000	      6.18251750	      8.40065191	     -2.47551969	      0.31059992	      0.99478417	      0.03393361	      6.27670020	     -6.87339168	    -10.16736885	    -18.99189727	      5.95185551	     -4.15832929	     -5.85266735	     10.21422448	      6.78616604	     -6.11074086	    -59.12023835	      3.30189008	      3.36924462	     56.32930378	    -24.13064045	     -6.64279444	      1.07517090
      4.00000000	      6.16770865	      8.46682264	     -2.53563157	      0.31560627	      0.99549787	      0.03450161	      5.80611486	     -6.91004611	    -10.21254662	    -18.68974635	      6.12988609	     -3.97705078	     -5.82405208	     10.84639431	      6.76285499	     -6.33750351	    -58.91425910	      3.54132881	      3.54916742	     56.16405306	    -24.12938956	     -6.80137645	      1.12221852
      4.00500000	      6.20014824	      8.54537179	     -2.57903084	      0.32062731	      0.99626153	      0.03499998	      5.27203864	     -6.97066056	    -10.32189311	    -18.37173424	      6.28625299	     -3.80114078	     -5.83044389	     11.39915497	      6.77046567	     -6.54656154	    -58.63185553	      3.84268243	      3.69855358	     55.28840337	    -24.18435837	     -6.96034003	      1.12093168
      4.01000000	      6.16561060	      8.60929856	     -2.63337572	      0.32557046	      0.99688453	      0.03553817	      4.83056462	     -7.00069384	    -10.34395261	    -18.07005267	      6.40567754	     -3.70387691	     -5.81233834	     12.01750197	      6.75121194	     -6.77486247	    -58.29214244	      4.09353919	      3.76540573	     55.26733130	    -24.17037322	     -7.11425508	      1.14510429
      4.01500000	      6.13680121	      8.69679103	     -2.69123097	      0.33051816	      0.99748470	      0.03604231	      4.39136453	     -7.06496266	    -10.39351826	    -17.78305829	      6.55382354	     -3.55429269	     -5.78798171	     12.60258730	      6.76312657	     -7.00387856	    -57.87038043	      4.33325482	      3.87632027	     55.20799900	    -24.16159189	     -7.29224764	      1.17856193
      4.02000000	      6.15296416	      8.80775025	     -2.76772431	      0.33551063	      0.99812446	      0.03652844	      3.91405437	     -7.16928506	    -10.49136622	    -17.52421169	      6.79055677	     -3.29184821	     -5.75063168	     13.09768319	      6.80184702	     -7.25375453	    -57.34191171	      4.53660026	      4.05068415	     54.99960118	    -24.19625052	     -7.49795818	      1.22294711
      4.02500000	      6.24674989	      8.89941002	     -2.77398769	      0.34052114	      0.99886598	      0.03691344	      3.29358115	     -7.25383425	    -10.66041854	    -17.17691576	      6.94337092	     -3.08262893	     -5.78948692	     13.48914478	      6.85613571	     -7.40616777	    -56.77399515	      4.81348743	      4.20704552	     53.94480465	    -24.32770167	     -7.65533585	      1.16665404
      4.03000000	      6.20205855	      9.00704860	     -2.83949401	      0.34542510	      0.99933350	      0.03733216	      2.90189409	     -7.35131423	    -10.72275224	    -16.93614517	      7.12507242	     -2.89981134	     -5.76047700	     14.02419443	      6.90194893	     -7.64439709	    -56.14254954	      5.01637969	      4.33168317	     53.85593889	    -24.30472460	     -7.85229065	      1.22962677
      4.03500000	      6.20512897	      9.12594749	     -2.88750340	      0.35035832	      0.99983701	      0.03771596	      2.44438812	     -7.46721297	    -10.82758095	    -16.68061160	      7.32217661	     -2.67678476	     -5.73068915	     14.47751915	      6.97462831	     -7.85543701	    -55.43448574	      5.19334078	      4.44086105	     53.66382917	    -24.33590919	     -8.05374454	      1.24260074
